<mxfile host="app.diagrams.net" modified="2024-05-24T23:57:05.259Z" agent="Mozilla/5.0 (X11; Linux x86_64) AppleWebKit/537.36 (KHTML, like Gecko) Chrome/124.0.0.0 Safari/537.36" etag="45xwWBHrd2vRyvBOlwZs" version="23.1.1" type="github">
  <diagram id="prtHgNgQTEPvFCAcTncT" name="Page-1">
    <mxGraphModel dx="2268" dy="786" grid="1" gridSize="10" guides="1" tooltips="1" connect="1" arrows="1" fold="1" page="1" pageScale="1" pageWidth="827" pageHeight="1169" math="0" shadow="0">
      <root>
        <mxCell id="0" />
        <mxCell id="1" parent="0" />
        <mxCell id="pDO1V8Rgy04W27cLTxhF-1" value="CORE" style="whiteSpace=wrap;html=1;aspect=fixed;verticalAlign=top;fillColor=#f8cecc;strokeColor=#b85450;" vertex="1" parent="1">
          <mxGeometry x="250" y="50" width="260" height="260" as="geometry" />
        </mxCell>
        <mxCell id="pDO1V8Rgy04W27cLTxhF-2" value="SENSOR" style="whiteSpace=wrap;html=1;aspect=fixed;verticalAlign=bottom;fillColor=#d5e8d4;strokeColor=#82b366;" vertex="1" parent="1">
          <mxGeometry x="230" y="430" width="300" height="300" as="geometry" />
        </mxCell>
        <mxCell id="pDO1V8Rgy04W27cLTxhF-3" value="Source db&lt;br&gt;(global)" style="shape=cylinder3;whiteSpace=wrap;html=1;boundedLbl=1;backgroundOutline=1;size=15;" vertex="1" parent="1">
          <mxGeometry x="270" y="60" width="66" height="80" as="geometry" />
        </mxCell>
        <mxCell id="pDO1V8Rgy04W27cLTxhF-4" value="Notifier" style="swimlane;whiteSpace=wrap;html=1;startSize=30;fillColor=#dae8fc;strokeColor=#6c8ebf;" vertex="1" parent="1">
          <mxGeometry x="280" y="150" width="200" height="140" as="geometry" />
        </mxCell>
        <mxCell id="pDO1V8Rgy04W27cLTxhF-5" value="&lt;div style=&quot;text-align: left;&quot;&gt;&lt;span style=&quot;background-color: initial;&quot;&gt;- Iterate over sensors&lt;/span&gt;&lt;/div&gt;&lt;div style=&quot;text-align: left;&quot;&gt;&lt;span style=&quot;background-color: initial;&quot;&gt;- Manage sensor/client permission&lt;/span&gt;&lt;/div&gt;&lt;div style=&quot;text-align: left;&quot;&gt;- Download non existing rulesets&lt;/div&gt;&lt;div style=&quot;text-align: left;&quot;&gt;- Post update source form to the sensor&lt;/div&gt;" style="text;html=1;strokeColor=none;fillColor=none;align=center;verticalAlign=top;whiteSpace=wrap;rounded=0;" vertex="1" parent="1">
          <mxGeometry x="290" y="190" width="180" height="90" as="geometry" />
        </mxCell>
        <mxCell id="pDO1V8Rgy04W27cLTxhF-10" value="Scirius rule manager" style="swimlane;fontStyle=0;childLayout=stackLayout;horizontal=1;startSize=30;horizontalStack=0;resizeParent=1;resizeParentMax=0;resizeLast=0;collapsible=1;marginBottom=0;whiteSpace=wrap;html=1;" vertex="1" parent="1">
          <mxGeometry x="280" y="450" width="200" height="120" as="geometry" />
        </mxCell>
        <mxCell id="pDO1V8Rgy04W27cLTxhF-11" value="Add rulesets to local database" style="text;strokeColor=none;fillColor=none;align=left;verticalAlign=middle;spacingLeft=4;spacingRight=4;overflow=hidden;points=[[0,0.5],[1,0.5]];portConstraint=eastwest;rotatable=0;whiteSpace=wrap;html=1;" vertex="1" parent="pDO1V8Rgy04W27cLTxhF-10">
          <mxGeometry y="30" width="200" height="30" as="geometry" />
        </mxCell>
        <mxCell id="pDO1V8Rgy04W27cLTxhF-12" value="Notify suricata of the update" style="text;strokeColor=none;fillColor=none;align=left;verticalAlign=middle;spacingLeft=4;spacingRight=4;overflow=hidden;points=[[0,0.5],[1,0.5]];portConstraint=eastwest;rotatable=0;whiteSpace=wrap;html=1;" vertex="1" parent="pDO1V8Rgy04W27cLTxhF-10">
          <mxGeometry y="60" width="200" height="30" as="geometry" />
        </mxCell>
        <mxCell id="pDO1V8Rgy04W27cLTxhF-13" value="Update rules (suricata)" style="text;strokeColor=none;fillColor=none;align=left;verticalAlign=middle;spacingLeft=4;spacingRight=4;overflow=hidden;points=[[0,0.5],[1,0.5]];portConstraint=eastwest;rotatable=0;whiteSpace=wrap;html=1;" vertex="1" parent="pDO1V8Rgy04W27cLTxhF-10">
          <mxGeometry y="90" width="200" height="30" as="geometry" />
        </mxCell>
        <mxCell id="pDO1V8Rgy04W27cLTxhF-14" value="" style="endArrow=classic;html=1;rounded=0;exitX=0.5;exitY=1;exitDx=0;exitDy=0;" edge="1" parent="1" source="pDO1V8Rgy04W27cLTxhF-4" target="pDO1V8Rgy04W27cLTxhF-10">
          <mxGeometry relative="1" as="geometry">
            <mxPoint x="360" y="330" as="sourcePoint" />
            <mxPoint x="380" y="450" as="targetPoint" />
          </mxGeometry>
        </mxCell>
        <mxCell id="pDO1V8Rgy04W27cLTxhF-15" value="" style="shape=message;html=1;outlineConnect=0;" vertex="1" parent="pDO1V8Rgy04W27cLTxhF-14">
          <mxGeometry width="60" height="42" relative="1" as="geometry">
            <mxPoint x="-30" y="-21" as="offset" />
          </mxGeometry>
        </mxCell>
        <mxCell id="pDO1V8Rgy04W27cLTxhF-16" value="- Rule source to update&lt;br&gt;- Source url pointing to the core" style="text;html=1;strokeColor=none;fillColor=none;align=left;verticalAlign=middle;whiteSpace=wrap;rounded=0;" vertex="1" parent="1">
          <mxGeometry x="414" y="350" width="176" height="40" as="geometry" />
        </mxCell>
        <mxCell id="pDO1V8Rgy04W27cLTxhF-18" value="New update" style="endArrow=classic;html=1;rounded=0;entryX=0;entryY=0.5;entryDx=0;entryDy=0;exitX=1;exitY=0.5;exitDx=0;exitDy=0;" edge="1" parent="1" source="pDO1V8Rgy04W27cLTxhF-23" target="pDO1V8Rgy04W27cLTxhF-4">
          <mxGeometry width="50" height="50" relative="1" as="geometry">
            <mxPoint x="120" y="245" as="sourcePoint" />
            <mxPoint x="440" y="310" as="targetPoint" />
          </mxGeometry>
        </mxCell>
        <mxCell id="pDO1V8Rgy04W27cLTxhF-21" value="Frontend" style="swimlane;fontStyle=0;childLayout=stackLayout;horizontal=1;startSize=30;horizontalStack=0;resizeParent=1;resizeParentMax=0;resizeLast=0;collapsible=1;marginBottom=0;whiteSpace=wrap;html=1;" vertex="1" parent="1">
          <mxGeometry x="-4" y="145" width="140" height="120" as="geometry" />
        </mxCell>
        <mxCell id="pDO1V8Rgy04W27cLTxhF-22" value="Select source" style="text;strokeColor=none;fillColor=none;align=left;verticalAlign=middle;spacingLeft=4;spacingRight=4;overflow=hidden;points=[[0,0.5],[1,0.5]];portConstraint=eastwest;rotatable=0;whiteSpace=wrap;html=1;" vertex="1" parent="pDO1V8Rgy04W27cLTxhF-21">
          <mxGeometry y="30" width="140" height="30" as="geometry" />
        </mxCell>
        <mxCell id="pDO1V8Rgy04W27cLTxhF-23" value="Select sensors" style="text;strokeColor=none;fillColor=none;align=left;verticalAlign=middle;spacingLeft=4;spacingRight=4;overflow=hidden;points=[[0,0.5],[1,0.5]];portConstraint=eastwest;rotatable=0;whiteSpace=wrap;html=1;" vertex="1" parent="pDO1V8Rgy04W27cLTxhF-21">
          <mxGeometry y="60" width="140" height="30" as="geometry" />
        </mxCell>
        <mxCell id="pDO1V8Rgy04W27cLTxhF-24" value="Enable source" style="text;strokeColor=none;fillColor=none;align=left;verticalAlign=middle;spacingLeft=4;spacingRight=4;overflow=hidden;points=[[0,0.5],[1,0.5]];portConstraint=eastwest;rotatable=0;whiteSpace=wrap;html=1;" vertex="1" parent="pDO1V8Rgy04W27cLTxhF-21">
          <mxGeometry y="90" width="140" height="30" as="geometry" />
        </mxCell>
        <mxCell id="pDO1V8Rgy04W27cLTxhF-25" value="Source db&lt;br&gt;(local)" style="shape=cylinder3;whiteSpace=wrap;html=1;boundedLbl=1;backgroundOutline=1;size=15;" vertex="1" parent="1">
          <mxGeometry x="347" y="590" width="66" height="80" as="geometry" />
        </mxCell>
      </root>
    </mxGraphModel>
  </diagram>
</mxfile>
